<svg xmlns="http://www.w3.org/2000/svg" viewBox="0 0 280.3 151.4"><defs><style>.a{font-size:54.91px;font-family:Bauhaus93, "Bauhaus 93";}.a,.b{fill:#42a5f5;stroke:#000;stroke-linecap:round;stroke-linejoin:round;stroke-width:1.5px;stroke-dasharray:6 3;}</style></defs><title>logo</title><text class="a" transform="translate(25.1 46.5) scale(1.14 1)"><tspan xml:space="preserve">[            ]</tspan></text><path class="b" d="M85,32l12.7.3c-.8,5.8-3.1,10.3-6.8,13.4s-8.6,4.7-14.6,4.7A22.8,22.8,0,0,1,61,45.1a17.6,17.6,0,0,1,.1-26.9,23.1,23.1,0,0,1,15.5-5.4,22.3,22.3,0,0,1,15.1,5.3,20.1,20.1,0,0,1,5.9,10.4l-13,.7c-1.5-3.9-4.2-5.9-8.3-5.9a8.9,8.9,0,0,0-6.4,2.4,7.9,7.9,0,0,0-2.6,6,7.6,7.6,0,0,0,2.5,5.8,8.8,8.8,0,0,0,6.3,2.3,8.7,8.7,0,0,0,6.2-2A8.8,8.8,0,0,0,85,32Z" transform="translate(-3 0.3)"/><path class="b" d="M115.7,23.3V49.5H103.5V13.7h15.6c4.8,0,8.4,1,11.1,3.1a10.7,10.7,0,0,1,4.3,8.8c0,3.6-1.8,6.7-5.4,9.1l7,14.8H123.4l-6-11.5V28.8h1c2.6,0,3.8-1,3.8-2.9s-1.4-2.6-4.4-2.6Z" transform="translate(-3 0.3)"/><path class="b" d="M159.6,12.8a21.6,21.6,0,0,1,14.9,5.5,17.3,17.3,0,0,1,6.2,13.3,16.9,16.9,0,0,1-6.3,13.3,21.9,21.9,0,0,1-15.2,5.5A22.2,22.2,0,0,1,144,44.9a17.1,17.1,0,0,1-6.3-13.3c0-5.3,2.2-9.7,6.4-13.4A23.1,23.1,0,0,1,159.6,12.8Zm-.4,10.5a8.9,8.9,0,0,0-6.4,2.5,7.7,7.7,0,0,0-2.6,5.8,7.4,7.4,0,0,0,2.7,5.8,8.8,8.8,0,0,0,6.3,2.4,9.1,9.1,0,0,0,6.4-2.4,7.3,7.3,0,0,0,2.6-5.8,7.7,7.7,0,0,0-2.6-5.9A9.1,9.1,0,0,0,159.2,23.3Z" transform="translate(-3 0.3)"/><path class="b" d="M205.6,13.5V23.7l-2-.4a3.6,3.6,0,0,0-2.4.9,3.1,3.1,0,0,0-.9,2.2,5.3,5.3,0,0,0,1,2.7l1,1.4a14.5,14.5,0,0,1,2.5,7.5,11.1,11.1,0,0,1-4.3,8.8,15.2,15.2,0,0,1-10.3,3.6,16.6,16.6,0,0,1-5.8-1.1V38.9a6.7,6.7,0,0,0,3.1.9,3.8,3.8,0,0,0,2.6-.8,2.4,2.4,0,0,0,1.1-2c0-.5-.6-1.6-1.7-3.4a14.8,14.8,0,0,1-2.8-8.4,11.4,11.4,0,0,1,4.2-8.8,14.3,14.3,0,0,1,9.8-3.6A16.1,16.1,0,0,1,205.6,13.5Z" transform="translate(-3 0.3)"/><path class="b" d="M231,13.5V23.7l-2-.4a3.6,3.6,0,0,0-2.4.9,3.2,3.2,0,0,0-1,2.2,5.6,5.6,0,0,0,1.1,2.7l.9,1.4a13.9,13.9,0,0,1,2.6,7.5,11.4,11.4,0,0,1-4.3,8.8,15.4,15.4,0,0,1-10.3,3.6,16.6,16.6,0,0,1-5.8-1.1V38.9a6.4,6.4,0,0,0,3,.9,4,4,0,0,0,2.7-.8,2.4,2.4,0,0,0,1.1-2c0-.5-.6-1.6-1.8-3.4a15.4,15.4,0,0,1-2.7-8.4,11.6,11.6,0,0,1,4.1-8.8,14.7,14.7,0,0,1,9.9-3.6A16.1,16.1,0,0,1,231,13.5Z" transform="translate(-3 0.3)"/><path class="b" d="M17.9,87.1V77.7c2.5,0,3.7-.8,3.7-2.4S20.7,73,18.8,73s-2.9,1-2.9,3.1V99.5H3.8V77.2a15.7,15.7,0,0,1,.8-5.7,10.5,10.5,0,0,1,2.7-4.1A14.7,14.7,0,0,1,12.7,64a18.8,18.8,0,0,1,6.6-1.2,15.1,15.1,0,0,1,10.5,3.7,11.4,11.4,0,0,1,4.3,9.1,10.7,10.7,0,0,1-3.8,8.5c-2.4,2.1-5.9,3.1-10.5,3.1Z" transform="translate(-3 0.3)"/><path class="b" d="M38.3,63.7H50.4V85c0,1.6.3,2.8.9,3.3s1.9.8,3.7.8h.6V99.5H52.3c-4.4,0-7.8-1.1-10.3-3.4s-3.7-5.4-3.7-9.4Z" transform="translate(-3 0.3)"/><path class="b" d="M74.5,81.5V91H71v8.5H58.8V76.7c0-4.4,1.4-7.8,4.2-10.3s6.6-3.6,11.6-3.6,8.3,1.1,10.6,3.3,3.4,5.6,3.4,10.3V99.5H76.5V77.1a5,5,0,0,0-.6-2.9,2.3,2.3,0,0,0-2-.9c-1.9,0-2.9,1.3-2.9,3.8v4.4Z" transform="translate(-3 0.3)"/><path class="b" d="M113.8,74V99.5H101.6V74H92.3V63.7h30.8V74Z" transform="translate(-3 0.3)"/><path class="b" d="M143,80.6v9.6h-4.1v9.3H126.8V77.3a13.3,13.3,0,0,1,4.4-10.4,16.8,16.8,0,0,1,23.5,1.5l-10,6.4a3,3,0,0,0-3-2.1c-1.8,0-2.8,1.2-2.8,3.4v4.5Z" transform="translate(-3 0.3)"/><path class="b" d="M176.5,62.8a21.5,21.5,0,0,1,14.9,5.5,17.2,17.2,0,0,1,0,26.6,23.8,23.8,0,0,1-30.4,0,17.3,17.3,0,0,1,0-26.7A23.1,23.1,0,0,1,176.5,62.8Zm-.3,10.5a8.7,8.7,0,0,0-6.4,2.5,7.8,7.8,0,0,0,0,11.6,9.7,9.7,0,0,0,12.8,0,7.7,7.7,0,0,0,2.6-5.8,8,8,0,0,0-2.6-5.9A9.3,9.3,0,0,0,176.2,73.3Z" transform="translate(-3 0.3)"/><path class="b" d="M215.5,73.3V99.5H203.4V63.7H219c4.8,0,8.4,1,11.1,3.1a10.7,10.7,0,0,1,4.3,8.8c0,3.6-1.8,6.7-5.4,9.1l7,14.8H223.3l-6-11.5V78.8h1c2.6,0,3.8-1,3.8-2.9s-1.4-2.6-4.4-2.6Z" transform="translate(-3 0.3)"/><path class="b" d="M239.3,99.5V73.7a10.4,10.4,0,0,1,3.3-7.9,12.3,12.3,0,0,1,8.6-3,11,11,0,0,1,9.7,5.1,11.3,11.3,0,0,1,4.4-3.9,13.2,13.2,0,0,1,5.9-1.2c3.6,0,6.5,1,8.4,3s3,5,3,8.8V99.5H270.4V76.2a6,6,0,0,0-.3-2.3,1.4,1.4,0,0,0-1.3-.6q-1.8,0-1.8,2.7V99.5H254.8V76.2a6,6,0,0,0-.3-2.3c-.2-.4-.6-.6-1.3-.6s-1.8,1-1.8,2.9V99.5Z" transform="translate(-3 0.3)"/><path class="b" d="M93.3,113.7v35.8H81.1V113.7Z" transform="translate(-3 0.3)"/><path class="b" d="M100.6,149.5V126.3a12.3,12.3,0,0,1,4.2-9.8c2.8-2.5,6.5-3.7,11.2-3.7s8.1,1.2,10.5,3.6,3.7,5.8,3.7,10.2v22.9H118V126.6c0-2.2-.8-3.3-2.6-3.3s-2.6,1.1-2.6,3.3v22.9Z" transform="translate(-3 0.3)"/><path class="b" d="M153,130.6v9.6h-4.1v9.3H136.8V127.3a13.7,13.7,0,0,1,4.4-10.4,15.8,15.8,0,0,1,11.1-4.1,15.6,15.6,0,0,1,12.4,5.6l-10,6.4a2.9,2.9,0,0,0-2.9-2.1c-1.9,0-2.9,1.2-2.9,3.4v4.5Z" transform="translate(-3 0.3)"/><path class="b" d="M186.6,112.8a21.8,21.8,0,0,1,14.9,5.5,17.3,17.3,0,0,1,6.2,13.3,16.9,16.9,0,0,1-6.3,13.3,23.8,23.8,0,0,1-30.4,0,17.3,17.3,0,0,1,0-26.7A23.3,23.3,0,0,1,186.6,112.8Zm-.4,10.5a8.9,8.9,0,0,0-6.4,2.5,7.8,7.8,0,0,0,0,11.6,9.7,9.7,0,0,0,12.8,0,7.7,7.7,0,0,0,2.6-5.8,8,8,0,0,0-2.6-5.9A9.3,9.3,0,0,0,186.2,123.3Z" transform="translate(-3 0.3)"/></svg>